<?xml version="1.0" encoding="UTF-8"?><svg id="Layer_1" xmlns="http://www.w3.org/2000/svg" viewBox="0 0 223.91 232"><defs><style>.cls-1{fill:#231f20;}.cls-2{fill:#fff;}</style></defs><path class="cls-2" d="M139.72,39.15v-13.51c-2-1.03-3.29-1.39-4.78-1.39-3.65,0-5.65,3.03-5.65,8.68,0,6.06,1.34,8.63,4.47,8.63,1.85,0,3.39-.62,5.96-2.41ZM143.47,28.4v7.57c0,2.77,0,4.01.1,5.6l.15,2.88c.05,1.13.1,2.11.1,2.83,0,5.81-3.08,8.89-8.89,8.89-2.77,0-5.91-.87-8.12-2.21-.26-.1-.31-.26-.31-.51v-.15s.05-.05.1-.15l.87-2c.1-.21.21-.31.36-.31.05,0,.26.05.36.15,2.21,1.13,4.68,1.85,6.52,1.85,3.8,0,5.34-1.54,5.34-5.5,0-.77-.05-1.59-.05-2.52-.05-1.23-.1-1.9-.1-2.06v-.51c-2.31,1.9-4.47,2.72-6.94,2.72-4.78,0-7.76-4.21-7.76-11.05,0-8.32,3.39-12.95,9.45-12.95,1.91,0,3.3.37,5.05,1.41v-.84c0-.46.1-.56.56-.56h2.57c.41,0,.62.1.62.36v7.07Z"/><path class="cls-2" d="M151.21,23.48c2.43-1.8,4.29-2.51,6.49-2.51,2.36,0,3.9.92,4.78,2.93,2.98-2.11,4.98-2.93,7.29-2.93,3.8,0,5.39,2.05,5.39,7.04v17.06c0,.46-.1.57-.57.57h-2.57c-.51,0-.62-.1-.62-.57v-17.21c0-2.52-.98-3.65-3.19-3.65-1.59,0-2.83.46-5.08,2v19.06c0,.26-.15.36-.56.36h-2.57c-.46,0-.56-.1-.56-.57v-17.16c0-2.47-1.08-3.7-3.24-3.7-1.59,0-2.98.56-4.98,2.11v18.75c0,.46-.1.57-.56.57h-2.57c-.41,0-.62-.1-.62-.36v-23.77c-.01-.46.09-.57.55-.57h2.57c.41,0,.62.1.62.36v2.19Z"/><path class="cls-2" d="M98,23.52c2.43-1.8,4.29-2.51,6.49-2.51,2.36,0,3.9.92,4.78,2.93,2.98-2.11,4.98-2.93,7.29-2.93,3.8,0,5.39,2.05,5.39,7.04v17.06c0,.46-.1.56-.57.56h-2.57c-.51,0-.62-.1-.62-.56v-17.21c0-2.52-.98-3.65-3.19-3.65-1.59,0-2.83.46-5.09,2v19.06c0,.26-.15.36-.57.36h-2.57c-.46,0-.57-.1-.57-.56v-17.16c0-2.47-1.08-3.7-3.24-3.7-1.59,0-2.98.56-4.98,2.11v18.75c0,.46-.1.56-.57.56h-2.57c-.41,0-.62-.1-.62-.36v-23.77c-.01-.46.09-.56.55-.56h2.57c.41,0,.62.1.62.36v2.19Z"/><path class="cls-2" d="M71.81,40.79c0-.28-.15-.43-.43-.43-12.93,0-13.48,0-15.13,0s-2.29-1.07-2.29-2.38,0-16.56,0-16.56c0-.28-.15-.43-.43-.43h-4.36c-.28,0-.43.15-.43.43,0,12.93,0,14.37,0,15.58h0v2.72c0,3.86,1.75,5.86,5.88,5.86.56,0,16.75,0,16.75,0,.28,0,.43-.15.43-.43v-4.36Z"/><path class="cls-2" d="M57.77,17.19c0,.28.15.43.43.43,12.92,0,13.48,0,15.13,0s2.29,1.07,2.29,2.38,0,16.56,0,16.56c0,.28.15.43.43.43h4.36c.28,0,.43-.15.43-.43,0-12.92,0-14.37,0-15.58h0v-2.72c0-3.86-1.75-5.86-5.88-5.86-.56,0-16.75,0-16.75,0-.28,0-.43.15-.43.43v4.36Z"/><path class="cls-2" d="M17.07,165.22l8.52-4.85-2.23-3.92,1.8-1.03,5.49,9.65-1.8,1.03-2.23-3.92-8.52,4.85-1.03-1.8Z"/><path class="cls-2" d="M25.76,178.44c-2.06-2.6-1.53-6.15,1.17-8.29,2.74-2.17,6.08-1.69,8.14.91l1.8,2.27c2.13,2.69,1.75,6.03-.95,8.17-2.7,2.14-6.27,1.85-8.37-.8l-1.8-2.27ZM29.19,179.42c1.36,1.72,3.62,1.91,5.37.52,1.76-1.39,2.05-3.6.69-5.32l-1.8-2.27c-1.32-1.67-3.54-1.91-5.31-.51-1.76,1.39-2.09,3.63-.76,5.31l1.8,2.27Z"/><path class="cls-2" d="M50.16,186.81l1.5,1.36-4.45,4.93c-2.47,2.73-4.97,2.8-8.39-.29-3.4-3.07-3.59-5.58-1.13-8.31l4.45-4.92,1.59,1.43-4.45,4.93c-1.6,1.77-1.47,3.21.96,5.4,2.43,2.19,3.87,2.18,5.47.41l4.45-4.93Z"/><path class="cls-2" d="M56.72,205.82l-.74-4.4-3.74-2.4.99-1.54,4.17,2.68c1.25.8,2.37.51,3.2-.78s.52-2.38-.67-3.15l-5.44-3.5-5.3,8.25-1.73-1.11,6.42-10,7.18,4.61c2.28,1.47,2.72,3.75,1.29,5.98-1.06,1.65-2.58,2.32-4.19,1.99l1.06,4.97-2.47-1.59Z"/><path class="cls-2" d="M67.88,201.9l-3.44,7.99-1.82-.78,4.27-9.91c.3-.71.87-.98,1.47-.72.29.12.48.33.64.74l4.41,10.96,3.44-7.99,1.82.78-4.31,10c-.31.72-.88.97-1.44.73-.32-.14-.54-.39-.7-.78l-4.35-11.02Z"/><path class="cls-2" d="M90.58,218.49l-1.03-3.32-5.46-1.32,1.35-1.41,3.54.85-1.53-4.94-7.38,7.6-2.3-.56,9.31-9.46c.33-.34.7-.52,1.14-.41.44.11.67.43.81.88l3.99,12.66-2.43-.59Z"/><path class="cls-2" d="M112.14,220.36l-1.98-8.43-3.63,7.61c-.25.5-.58.77-1.09.75-.49-.02-.84-.31-1.04-.82l-3.08-7.85-2.56,8.27-2.04-.07,3.44-11.07c.17-.57.5-.83,1.06-.81.44.02.84.27,1.02.74l3.37,8.53,3.95-8.27c.21-.45.58-.68,1.02-.67.51.02.82.31.97.88l2.65,11.28-2.06-.07Z"/><path class="cls-2" d="M118.29,220.11l-1.41-11.8,10.54-1.26.25,2.06-8.49,1.01.92,7.68,8.51-1.02.25,2.06-10.55,1.26ZM121.24,214.56l-.21-1.74,6.54-.78.21,1.74-6.54.78Z"/><path class="cls-2" d="M132.81,209.14l2.31,8.39-1.91.53-2.87-10.4c-.2-.74.06-1.31.69-1.48.3-.08.58-.04.96.17l10.3,5.79-2.31-8.39,1.91-.53,2.9,10.5c.21.76-.08,1.31-.66,1.47-.33.09-.67.03-1.03-.17l-10.29-5.88Z"/><path class="cls-2" d="M152.98,211.55l-3.97-8.96-4.12,1.83-.84-1.9,10.14-4.5.84,1.9-4.12,1.83,3.97,8.96-1.9.84Z"/><path class="cls-2" d="M168.47,203.48l-2.03-2.83c-1.35-1.87-.97-3.53.97-4.93l3.49-2.51c.73-.53.91-1.32.38-2.05s-1.31-.85-2.07-.3l-6.39,4.59-1.21-1.69,6.39-4.59c1.91-1.38,3.79-.98,4.91.58,1.15,1.59.86,3.55-.97,4.87l-3.5,2.52c-.9.65-1.08,1.42-.48,2.24l.91,1.26,7.67-5.52,1.21,1.69-9.27,6.67Z"/><path class="cls-2" d="M176.93,189.63c-2.44-2.49-2.26-6.14.22-8.58,2.47-2.43,6.14-2.54,8.58-.05,2.43,2.47,2.42,6.32-.05,8.75-2.49,2.44-6.32,2.35-8.75-.12ZM178.62,182.55c-1.87,1.83-1.74,4.06-.14,5.7,1.6,1.63,3.88,1.85,5.73.03,1.87-1.83,1.69-4.11.09-5.74-1.6-1.63-3.84-1.79-5.69.01Z"/><path class="cls-2" d="M192.88,181.97l-2.79-2.09c-1.84-1.38-1.98-3.08-.55-4.99l2.58-3.44c.54-.72.47-1.53-.25-2.07-.72-.54-1.51-.42-2.07.33l-4.72,6.29-1.66-1.25,4.72-6.29c1.41-1.88,3.33-2.06,4.86-.91,1.57,1.18,1.88,3.13.53,4.93l-2.59,3.45c-.67.89-.6,1.67.21,2.28l1.24.93,5.67-7.56,1.66,1.25-6.85,9.13Z"/><path class="cls-2" d="M202.36,168.79l-1.83-.97,4.17-7.87c.52-.98.26-1.81-.57-2.24-.89-.48-1.65-.17-2.16.79l-4.17,7.87-5.93-3.15,5.63-10.61,1.83.97-4.63,8.72,2.55,1.36,3.17-5.98c1.12-2.11,2.72-2.72,4.75-1.64,1.76.93,2.51,2.7,1.35,4.88l-4.17,7.87Z"/><path class="cls-2" d="M17.84,167.95l-1.7-2.99,8.52-4.85-2.23-3.92,2.99-1.7,6.17,10.83-2.99,1.7-2.23-3.92-8.52,4.85ZM18,165.47l.35.62,8.52-4.85,2.23,3.92.62-.35-4.82-8.46-.62.35,2.23,3.92-8.52,4.85Z"/><path class="cls-2" d="M32.04,183.6c-1.89,0-3.72-.84-5.01-2.47l-1.8-2.27c-1.11-1.4-1.59-3.12-1.34-4.84.24-1.7,1.18-3.26,2.63-4.41,3-2.38,6.75-1.95,9.1,1.02l1.8,2.27c1.15,1.45,1.67,3.15,1.48,4.8-.19,1.65-1.09,3.19-2.54,4.34-1.32,1.05-2.84,1.56-4.32,1.56ZM30.64,169.47c-1.11,0-2.25.4-3.27,1.21-1.17.93-1.93,2.18-2.12,3.53-.19,1.34.18,2.69,1.06,3.8h0l1.8,2.27c1.85,2.33,4.96,2.62,7.41.69,1.18-.93,1.88-2.12,2.03-3.42.15-1.3-.26-2.62-1.19-3.79l-1.8-2.27c-1.05-1.33-2.46-2.01-3.91-2.01ZM32.05,181.54c-.13,0-.26,0-.39-.02-1.17-.11-2.24-.71-3.01-1.68l-1.8-2.27c-1.55-1.96-1.18-4.65.87-6.27,2.06-1.63,4.69-1.36,6.26.62l1.8,2.27c1.59,2.01,1.26,4.65-.8,6.28-.88.7-1.91,1.07-2.93,1.07ZM30.62,171.61c-.69,0-1.4.25-2.05.77-1.46,1.15-1.73,2.98-.65,4.35l1.8,2.27c.55.69,1.26,1.09,2.07,1.17.79.07,1.63-.2,2.35-.76,1.46-1.16,1.7-2.95.58-4.36l-1.8-2.27c-.61-.77-1.43-1.17-2.3-1.17Z"/><path class="cls-2" d="M43.46,195.81s-.06,0-.09,0c-1.53-.03-3.17-.85-5-2.5-3.59-3.24-3.96-6.19-1.18-9.27l4.91-5.43,2.6,2.35-4.91,5.43c-.69.77-.96,1.38-.86,1.98.11.68.69,1.48,1.77,2.46,2.3,2.08,3.29,1.8,4.51.45l4.91-5.43,2.52,2.27-4.91,5.43c-1.37,1.52-2.77,2.26-4.27,2.26ZM42.2,180.53l-3.99,4.42c-1.9,2.11-2.45,4.16,1.08,7.34,1.58,1.42,2.92,2.13,4.11,2.15,1.13,0,2.18-.55,3.32-1.81l3.99-4.42-.49-.44-3.99,4.42c-1.93,2.13-3.79,2.03-6.44-.36-1.34-1.21-2.04-2.25-2.21-3.26-.16-1.03.22-2.02,1.2-3.11l3.99-4.42-.58-.52Z"/><path class="cls-2" d="M60.2,208.87l-4.11-2.64-.74-4.4-4.06-2.61,1.73-2.69,4.74,3.05c.92.59,1.62.42,2.26-.57.3-.47.41-.89.33-1.25-.08-.35-.35-.67-.8-.96l-4.87-3.13-5.3,8.25-2.88-1.85,7.16-11.14,7.75,4.98c1.27.82,2.08,1.9,2.34,3.14.25,1.22-.04,2.53-.84,3.78-.98,1.53-2.37,2.36-3.9,2.39l1.21,5.67ZM57.34,205.41l.84.54-.94-4.39,1.02.21c1.36.29,2.6-.32,3.48-1.69.61-.95.83-1.9.65-2.76-.18-.87-.78-1.65-1.74-2.27l-6.6-4.24-5.68,8.85.58.38,5.3-8.25,6.02,3.87c.76.49,1.23,1.09,1.39,1.8.17.73,0,1.5-.51,2.3-1.04,1.62-2.59,1.99-4.14.98l-3.59-2.31-.25.39,3.42,2.2.74,4.4Z"/><path class="cls-2" d="M73.33,214.47c-.22,0-.45-.05-.68-.14-.48-.21-.84-.59-1.06-1.15l-3.74-9.49-3.06,7.09-3.07-1.32,4.54-10.54c.21-.5.54-.87.95-1.06.44-.21.94-.22,1.42-.01.46.2.78.55,1.01,1.11l3.8,9.44,3.06-7.11,3.07,1.32-4.58,10.63c-.34.79-.97,1.23-1.66,1.23ZM67.91,200.11l4.95,12.56c.11.28.24.36.33.4.21.09.39-.04.54-.38l4.04-9.37-.56-.24-3.82,8.87-5.02-12.48c-.12-.3-.21-.34-.28-.37-.16-.07-.24-.03-.27-.02-.11.05-.21.19-.3.38l-4,9.28.56.24,3.83-8.88Z"/><path class="cls-2" d="M94.02,220.03l-3.98-.96-1.03-3.32-6.24-1.5,2.44-2.55,2.76.66-.83-2.69-6.85,7.05-3.85-.93,10.15-10.31c.54-.55,1.15-.75,1.79-.6.95.23,1.22,1.07,1.3,1.34l4.35,13.81ZM91.12,217.92l.88.21-3.63-11.51c-.12-.38-.23-.41-.32-.43-.08-.02-.22-.05-.5.23l-8.46,8.59.75.18,7.91-8.15,2.23,7.19-4.33-1.04-.25.26,4.69,1.13,1.03,3.32Z"/><path class="cls-2" d="M115.07,221.14l-3.47-.12-1.66-7.05-2.8,5.86c-.48.97-1.2,1.16-1.73,1.14-.75-.03-1.36-.49-1.65-1.26l-2.37-6.03-2.14,6.91-3.46-.12,3.71-11.93c.25-.86.86-1.34,1.73-1.29.74.03,1.36.48,1.63,1.17l2.79,7.07,3.28-6.86c.32-.68.95-1.05,1.66-1.06.48.02,1.31.22,1.61,1.4l2.86,12.16ZM112.68,219.69l.65.02-2.45-10.41c-.09-.35-.2-.35-.33-.36-.07-.01-.25-.01-.38.28l-4.63,9.69-3.95-9.98c-.1-.26-.3-.3-.41-.31-.19-.01-.29,0-.38.32l-3.18,10.23.63.02,2.98-9.63,3.79,9.66c.14.38.33.39.42.39.12,0,.27.01.45-.37l4.47-9.36,2.31,9.81Z"/><path class="cls-2" d="M117.7,220.87l-1.57-13.16,11.89-1.42.41,3.42-8.49,1.01.75,6.32,8.51-1.02.41,3.42-11.91,1.42ZM117.64,208.91l1.25,10.45,9.2-1.1-.08-.71-8.51,1.02-1.08-9.04,8.49-1.01-.08-.71-9.18,1.1ZM120.64,215.32l-.37-3.09,7.9-.94.37,3.09-7.9.94ZM121.79,213.42l.05.38,5.19-.62-.05-.38-5.19.62Z"/><path class="cls-2" d="M132.74,218.89l-3.05-11.06c-.31-1.11.17-2.04,1.17-2.32.48-.14.96-.06,1.48.24l8.87,4.99-2.06-7.46,3.22-.89,3.08,11.16c.16.58.11,1.11-.13,1.54-.21.37-.57.65-1.01.77-.5.14-1.02.06-1.55-.24l-8.86-5.06,2.06,7.45-3.22.89ZM131.32,206.81s-.07,0-.1.02c-.11.03-.37.1-.22.64l2.69,9.75.59-.16-2.57-9.32,11.73,6.7c.26.15.41.14.51.11.12-.03.16-.09.18-.12.06-.11.06-.29,0-.51l-2.71-9.84-.59.16,2.57,9.31-11.73-6.6c-.18-.1-.28-.13-.35-.13Z"/><path class="cls-2" d="M152.63,212.45l-3.97-8.96-4.12,1.83-1.39-3.14,11.39-5.05,1.39,3.15-4.12,1.83,3.97,8.96-3.15,1.39ZM149.35,201.69l3.97,8.96.65-.29-3.97-8.96,4.12-1.83-.29-.65-8.9,3.94.29.65,4.12-1.83Z"/><path class="cls-2" d="M168.32,204.43l-2.43-3.38c-.78-1.08-1.07-2.15-.86-3.18.2-.99.87-1.9,1.99-2.7l3.49-2.51c.22-.16.35-.34.39-.52.04-.18-.02-.37-.16-.57-.3-.42-.67-.47-1.12-.15l-6.94,4.99-2.01-2.79,6.94-4.99c1.06-.76,2.18-1.09,3.25-.93,1.03.15,1.94.72,2.61,1.67.67.94.94,2.02.75,3.06-.2,1.07-.84,2.02-1.87,2.76l-3.5,2.52c-.76.55-.58.94-.33,1.29l.51.71,7.67-5.52,2.01,2.79-10.38,7.47ZM170.15,189.84c.64,0,1.24.32,1.68.93.73,1.01.51,2.25-.54,3l-3.49,2.51c-.83.6-1.31,1.22-1.45,1.87-.13.63.08,1.34.63,2.11l1.64,2.27,8.16-5.87-.42-.58-7.67,5.52-1.31-1.82c-.81-1.13-.57-2.32.64-3.19l3.5-2.52c.74-.53,1.2-1.19,1.33-1.9.12-.68-.05-1.38-.51-2.02-.45-.63-1.04-1.02-1.7-1.11-.71-.1-1.49.14-2.26.69l-5.83,4.2.42.58,5.83-4.2c.44-.31.9-.47,1.35-.47Z"/><path class="cls-2" d="M181.39,192.21s-.07,0-.11,0c-1.81-.03-3.52-.78-4.83-2.11h0c-2.65-2.71-2.55-6.81.23-9.54,2.79-2.73,6.89-2.75,9.54-.04,2.71,2.76,2.68,7.03-.06,9.71-1.3,1.28-3,1.98-4.78,1.98ZM177.42,189.15c1.05,1.07,2.43,1.67,3.88,1.7,1.45,0,2.84-.54,3.91-1.59,2.19-2.15,2.21-5.57.04-7.79-2.14-2.18-5.34-2.16-7.61.06-2.27,2.22-2.36,5.42-.21,7.61h0ZM181.35,190.25c-1.18,0-2.36-.51-3.36-1.52-1.95-1.99-1.89-4.67.15-6.66h0c2.03-1.99,4.7-1.99,6.65,0,.92.94,1.44,2.1,1.45,3.27.01,1.24-.52,2.43-1.55,3.44-1.01.99-2.18,1.48-3.34,1.48ZM179.1,183.03c-1.5,1.47-1.55,3.28-.13,4.73,1.45,1.47,3.27,1.49,4.77.02.76-.74,1.15-1.59,1.14-2.45,0-.82-.38-1.63-1.06-2.33-1.42-1.45-3.23-1.44-4.72.02h0Z"/><path class="cls-2" d="M193.02,182.93l-3.33-2.5c-1.07-.8-1.67-1.74-1.77-2.77-.1-1.01.26-2.07,1.09-3.17l2.58-3.44c.33-.44.29-.81-.11-1.11-.42-.31-.78-.25-1.11.19l-5.13,6.84-2.75-2.07,5.13-6.84c1.55-2.07,3.89-2.49,5.81-1.05.92.69,1.5,1.65,1.63,2.69.13,1.08-.2,2.18-.96,3.2l-2.59,3.45c-.56.75-.27,1.07.07,1.33l.7.52,5.67-7.56,2.75,2.07-7.67,10.22ZM190.98,168.37c.44,0,.89.15,1.31.47,1,.75,1.16,1.99.39,3.02l-2.58,3.44c-.61.82-.89,1.56-.82,2.21.07.64.48,1.26,1.23,1.82l2.24,1.68,6.03-8.03-.57-.43-5.67,7.56-1.79-1.34c-1.11-.83-1.24-2.04-.35-3.24l2.59-3.45c.55-.73.79-1.49.7-2.21-.08-.68-.46-1.29-1.09-1.77-1.33-1-2.79-.71-3.9.78l-4.31,5.74.57.43,4.31-5.74c.46-.62,1.08-.93,1.71-.93Z"/><path class="cls-2" d="M202.64,169.71l-3.04-1.61,4.5-8.47c.17-.32.23-.6.16-.83-.05-.2-.2-.36-.45-.49-.39-.21-.6-.13-.66-.11-.2.08-.4.29-.58.62l-4.49,8.47-7.14-3.79,6.27-11.82,3.04,1.61-4.63,8.72,1.35.72,2.85-5.37c.64-1.21,1.45-2,2.41-2.34.99-.35,2.09-.21,3.27.42,1.06.56,1.79,1.38,2.1,2.37.33,1.05.17,2.23-.47,3.43l-4.49,8.47ZM201.45,167.53l.63.33,3.85-7.26c.47-.88.59-1.68.37-2.38-.2-.64-.7-1.18-1.44-1.57-.83-.44-1.56-.55-2.17-.34-.62.22-1.18.79-1.66,1.69l-3.49,6.58-3.76-2,4.63-8.72-.63-.33-4.99,9.4,4.73,2.51,3.85-7.26c.34-.64.78-1.06,1.3-1.26.39-.14,1.01-.23,1.78.18.58.31.97.77,1.13,1.34.15.56.06,1.2-.28,1.83l-3.85,7.26Z"/><path class="cls-2" d="M17.07,165.22l8.52-4.85-2.23-3.92,1.8-1.03,5.49,9.65-1.8,1.03-2.23-3.92-8.52,4.85-1.03-1.8Z"/><path class="cls-2" d="M25.76,178.44c-2.06-2.6-1.53-6.15,1.17-8.29,2.74-2.17,6.08-1.69,8.14.91l1.8,2.27c2.13,2.69,1.75,6.03-.95,8.17-2.7,2.14-6.27,1.85-8.37-.8l-1.8-2.27ZM29.19,179.42c1.36,1.72,3.62,1.91,5.37.52,1.76-1.39,2.05-3.6.69-5.32l-1.8-2.27c-1.32-1.67-3.54-1.91-5.31-.51-1.76,1.39-2.09,3.63-.76,5.31l1.8,2.27Z"/><path class="cls-2" d="M50.16,186.81l1.5,1.36-4.45,4.93c-2.47,2.73-4.97,2.8-8.39-.29-3.4-3.07-3.59-5.58-1.13-8.31l4.45-4.92,1.59,1.43-4.45,4.93c-1.6,1.77-1.47,3.21.96,5.4,2.43,2.19,3.87,2.18,5.47.41l4.45-4.93Z"/><path class="cls-2" d="M56.72,205.82l-.74-4.4-3.74-2.4.99-1.54,4.17,2.68c1.25.8,2.37.51,3.2-.78s.52-2.38-.67-3.15l-5.44-3.5-5.3,8.25-1.73-1.11,6.42-10,7.18,4.61c2.28,1.47,2.72,3.75,1.29,5.98-1.06,1.65-2.58,2.32-4.19,1.99l1.06,4.97-2.47-1.59Z"/><path class="cls-2" d="M67.88,201.9l-3.44,7.99-1.82-.78,4.27-9.91c.3-.71.87-.98,1.47-.72.29.12.48.33.64.74l4.41,10.96,3.44-7.99,1.82.78-4.31,10c-.31.72-.88.97-1.44.73-.32-.14-.54-.39-.7-.78l-4.35-11.02Z"/><path class="cls-2" d="M90.58,218.49l-1.03-3.32-5.46-1.32,1.35-1.41,3.54.85-1.53-4.94-7.38,7.6-2.3-.56,9.31-9.46c.33-.34.7-.52,1.14-.41.44.11.67.43.81.88l3.99,12.66-2.43-.59Z"/><path class="cls-2" d="M112.14,220.36l-1.98-8.43-3.63,7.61c-.25.5-.58.77-1.09.75-.49-.02-.84-.31-1.04-.82l-3.08-7.85-2.56,8.27-2.04-.07,3.44-11.07c.17-.57.5-.83,1.06-.81.44.02.84.27,1.02.74l3.37,8.53,3.95-8.27c.21-.45.58-.68,1.02-.67.51.02.82.31.97.88l2.65,11.28-2.06-.07Z"/><path class="cls-2" d="M118.29,220.11l-1.41-11.8,10.54-1.26.25,2.06-8.49,1.01.92,7.68,8.51-1.02.25,2.06-10.55,1.26ZM121.24,214.56l-.21-1.74,6.54-.78.21,1.74-6.54.78Z"/><path class="cls-2" d="M132.81,209.14l2.31,8.39-1.91.53-2.87-10.4c-.2-.74.06-1.31.69-1.48.3-.08.58-.04.96.17l10.3,5.79-2.31-8.39,1.91-.53,2.9,10.5c.21.76-.08,1.31-.66,1.47-.33.09-.67.03-1.03-.17l-10.29-5.88Z"/><path class="cls-2" d="M152.98,211.55l-3.97-8.96-4.12,1.83-.84-1.9,10.14-4.5.84,1.9-4.12,1.83,3.97,8.96-1.9.84Z"/><path class="cls-2" d="M168.47,203.48l-2.03-2.83c-1.35-1.87-.97-3.53.97-4.93l3.49-2.51c.73-.53.91-1.32.38-2.05s-1.31-.85-2.07-.3l-6.39,4.59-1.21-1.69,6.39-4.59c1.91-1.38,3.79-.98,4.91.58,1.15,1.59.86,3.55-.97,4.87l-3.5,2.52c-.9.65-1.08,1.42-.48,2.24l.91,1.26,7.67-5.52,1.21,1.69-9.27,6.67Z"/><path class="cls-2" d="M176.93,189.63c-2.44-2.49-2.26-6.14.22-8.58,2.47-2.43,6.14-2.54,8.58-.05,2.43,2.47,2.42,6.32-.05,8.75-2.49,2.44-6.32,2.35-8.75-.12ZM178.62,182.55c-1.87,1.83-1.74,4.06-.14,5.7,1.6,1.63,3.88,1.85,5.73.03,1.87-1.83,1.69-4.11.09-5.74-1.6-1.63-3.84-1.79-5.69.01Z"/><path class="cls-2" d="M192.88,181.97l-2.79-2.09c-1.84-1.38-1.98-3.08-.55-4.99l2.58-3.44c.54-.72.47-1.53-.25-2.07-.72-.54-1.51-.42-2.07.33l-4.72,6.29-1.66-1.25,4.72-6.29c1.41-1.88,3.33-2.06,4.86-.91,1.57,1.18,1.88,3.13.53,4.93l-2.59,3.45c-.67.89-.6,1.67.21,2.28l1.24.93,5.67-7.56,1.66,1.25-6.85,9.13Z"/><path class="cls-2" d="M202.36,168.79l-1.83-.97,4.17-7.87c.52-.98.26-1.81-.57-2.24-.89-.48-1.65-.17-2.16.79l-4.17,7.87-5.93-3.15,5.63-10.61,1.83.97-4.63,8.72,2.55,1.36,3.17-5.98c1.12-2.11,2.72-2.72,4.75-1.64,1.76.93,2.51,2.7,1.35,4.88l-4.17,7.87Z"/><path class="cls-2" d="M112.89,194.76c-10.56,0-21.17-2.48-30.67-7.17-6.73-3.32-12.84-7.69-18.16-12.97-.84-.84-1.71-1.75-2.57-2.7-.12-.13-.47-.54-.47-.54-.63-.71-1.28-1.46-1.9-2.22-.17-.21-.33-.42-.49-.63l-.21-.27c-.5-.63-1.01-1.29-1.5-1.96-.18-.25-.36-.5-.53-.75l-.22-.31c-.44-.62-.88-1.25-1.29-1.89-.19-.29-.37-.58-.55-.87l-.19-.3c-.38-.61-.76-1.23-1.13-1.85-.1-.16-.19-.33-.29-.5l-11.86-8.56-27.93-24.22c-3.55-3.08-5.59-7.54-5.59-12.25l.96-25.07c-.13-1.95.16-3.88.86-5.73,2.29-6.1,8.34-10.04,15.42-10.04h174.86c7.08,0,13.13,3.94,15.42,10.04l.15.41,1.56,30.32v.07c0,4.7-2.04,9.16-5.59,12.25l-29.89,25.92-3.25-3.45c-.13.34-.26.69-.39,1.03-.24.61-.48,1.21-.74,1.81-.2.47-.4.93-.6,1.4-.27.61-.56,1.21-.85,1.81-.24.51-.45.93-.66,1.35-.31.6-.63,1.19-.95,1.79l-.16.29c-.19.34-.37.68-.57,1.02-.35.6-.71,1.19-1.07,1.78l-.17.28c-.2.33-.4.65-.61.97-.35.54-.71,1.06-1.07,1.59l-.33.48c-.2.29-.4.58-.61.88-.4.56-.82,1.1-1.24,1.64l-.33.43c-.23.3-.41.54-.6.78-.46.56-.93,1.11-1.4,1.66l-.39.46c-.18.21-.37.44-.57.66-.67.75-1.39,1.52-2.21,2.35-.12.13-.21.23-.31.32-13.1,13.2-30.56,20.47-49.14,20.47Z"/><path d="M24.57,76.79c-5.88,0-10.9,3.22-12.77,8.2-.58,1.55-.79,3.14-.67,4.69l-.96,25.12c0,3.88,1.68,7.56,4.61,10.1l27.83,24.14,12.27,8.85c.19.34.37.67.57,1,.35.6.72,1.19,1.09,1.78l.19.3c.17.27.34.55.52.82.4.61.82,1.21,1.25,1.82l.23.32c.16.23.32.46.48.68.47.64.96,1.27,1.46,1.9l.22.28c.14.19.29.38.44.56.6.73,1.22,1.45,1.85,2.16l.13.15c.1.11.2.23.3.34.82.91,1.65,1.78,2.47,2.59,5.1,5.07,10.96,9.25,17.42,12.44,9.38,4.63,19.44,6.88,29.42,6.88,17.3,0,34.35-6.77,47.13-19.64.08-.08.15-.16.25-.27.8-.82,1.51-1.57,2.15-2.29.18-.2.35-.4.52-.61l.4-.47c.45-.52.9-1.05,1.34-1.58.19-.24.38-.48.56-.72l.34-.45c.4-.52.8-1.04,1.19-1.57.2-.27.38-.55.57-.82l.34-.49c.35-.5.7-1.01,1.03-1.52.2-.3.38-.61.57-.92l.18-.29c.35-.56.69-1.13,1.02-1.7.18-.32.36-.64.54-.96l.16-.29c.31-.57.62-1.14.91-1.71.21-.4.4-.81.64-1.3.28-.58.55-1.15.81-1.73.2-.45.39-.89.58-1.34.24-.58.48-1.15.71-1.74.18-.46.35-.92.52-1.38.21-.58.41-1.15.6-1.73.16-.48.31-.96.46-1.44.09-.29.17-.57.25-.86l4.65,4.93,27.83-24.14c2.93-2.54,4.61-6.23,4.61-10.1l-1.54-29.81c-1.87-4.98-6.88-8.2-12.77-8.2H24.57Z"/><path class="cls-2" d="M210.06,96.77l-22.77,19.04,16.51-10.12-15.62,18.1,17.39-12.12-17.69,20.24,18.58-13.45-27.58,27.8,27.83-24.14c2.13-1.84,3.35-4.52,3.35-7.33v-18.03Z"/><path class="cls-2" d="M112.88,191.07c-17.44,0-33.86-6.77-46.24-19.06-25.67-25.5-25.81-67.12-.31-92.79,12.41-12.49,28.94-19.38,46.55-19.38s33.86,6.77,46.24,19.06c12.44,12.35,19.32,28.8,19.38,46.33.06,17.53-6.71,34.03-19.06,46.46-12.41,12.49-28.94,19.38-46.55,19.38Z"/><circle cx="112.88" cy="125.46" r="62.78" transform="translate(-.41 .37) rotate(-.19)"/><path class="cls-2" d="M157.42,169.7c-24.43,24.6-64.18,24.74-88.78.3-13.08-12.99-19.25-30.32-18.48-47.39.69,15.17,6.85,30.14,18.48,41.69,24.6,24.43,64.35,24.29,88.78-.31,11.44-11.52,17.5-26.37,18.18-41.4.76,16.93-5.29,34.13-18.18,47.11Z"/><path class="cls-2" d="M168.39,137.32c1.37-15.87-4.05-32.22-16.25-44.33-21.83-21.69-57.12-21.56-78.8.28-11.98,12.07-17.31,28.25-15.98,43.96-3.78-18.05,1.31-37.57,15.27-51.63,22.08-22.24,57.99-22.36,80.22-.28,14.18,14.08,19.36,33.79,15.54,51.99Z"/><ellipse class="cls-2" cx="115.63" cy="85.99" rx="19.73" ry="11.65"/><circle class="cls-2" cx="113" cy="132.01" r="32.01"/><path class="cls-2" d="M19.98,91.94c-1.43-1.25-1.89-2.8-1.31-4.36.64-1.71,2.72-3.44,5.9-3.44h9.48c-.44-1.26-.9-2.5-1.43-3.67h-8.05c-4.34,0-8,2.29-9.33,5.82-1.13,3.01-.26,6.16,2.35,8.44l29.64,24.81.3-4.36-27.55-23.23Z"/><path class="cls-2" d="M178.84,117.98l25.21-26.06c1.41-1.23,1.87-2.78,1.28-4.34-.64-1.71-2.72-3.44-5.9-3.44h-19.43l3.27-3.67h16.16c4.34,0,8,2.29,9.33,5.82,1.13,3.01.26,6.16-2.33,8.42l-27.6,23.28Z"/><path class="cls-2" d="M13.84,96.77l32.21,27.19-18.54-11.45,17.66,19.43-19.43-13.45,19.73,21.57-20.61-14.78,20.17,20.98-27.83-24.14c-2.13-1.84-3.35-4.52-3.35-7.33v-18.03Z"/><path class="cls-1" d="M114.12,150.63c-3.55,0-6.54-1.2-8.96-3.61-2.42-2.41-3.62-5.39-3.62-8.94,0-3.25,1.07-6.06,3.21-8.44-1.38-1.94-2.07-4.13-2.07-6.57,0-3.25,1.09-5.98,3.28-8.18,2.19-2.21,4.91-3.31,8.16-3.31s6,1.09,8.18,3.28c2.19,2.19,3.28,4.93,3.28,8.21,0,2.44-.71,4.65-2.12,6.62,2.14,2.34,3.21,5.14,3.21,8.39,0,3.55-1.2,6.53-3.61,8.94s-5.39,3.61-8.94,3.61ZM114.12,134.49c-1.01,0-1.85.34-2.53,1.04-.67.69-1.01,1.54-1.01,2.55s.34,1.79,1.04,2.48c.69.69,1.52,1.04,2.5,1.04s1.83-.34,2.5-1.01c.67-.67,1.01-1.51,1.01-2.5s-.34-1.86-1.01-2.55c-.67-.69-1.51-1.04-2.5-1.04ZM114.12,120.65c-.69,0-1.26.23-1.72.69-.45.46-.68,1.04-.68,1.73s.24,1.22.71,1.68c.47.46,1.04.69,1.69.69.69,0,1.27-.22,1.73-.67.46-.45.69-1.01.69-1.71s-.23-1.27-.69-1.73c-.46-.46-1.04-.69-1.73-.69Z"/></svg>